<?xml version="1.0" encoding="UTF-8"?>
<svg version="1.1" xmlns="http://www.w3.org/2000/svg" width="500" height="500">
<path d="M0 0 C165 0 330 0 500 0 C500 165 500 330 500 500 C335 500 170 500 0 500 C0 335 0 170 0 0 Z " fill="#FEFEFE" transform="translate(0,0)"/>
<path d="M0 0 C6.40785663 6.11285959 7.65206511 12.73182119 7.87402344 21.19384766 C7.93211235 25.26869976 7.90222326 29.33918676 7.859375 33.4140625 C7.85901072 35.59638555 7.86102431 37.77871016 7.86529541 39.96102905 C7.86658541 44.51867644 7.84375283 49.07535416 7.80273438 53.6328125 C7.75160209 59.45792045 7.75387894 65.28150816 7.77334213 71.10676003 C7.78366451 75.60744308 7.76918429 80.10778005 7.74695587 84.60840988 C7.73862618 86.75567459 7.73708091 88.90297725 7.74260712 91.05025101 C7.74590916 94.05590407 7.71662195 97.05956123 7.67871094 100.06494141 C7.68569 100.94102554 7.69266907 101.81710968 7.69985962 102.71974182 C7.55275243 109.90196476 5.22932184 115.63464258 0.21554184 120.85962868 C-5.05864758 125.69456704 -10.19652193 128.3843583 -17.46435547 128.34057617 C-18.72520966 128.34034958 -19.98606384 128.34012299 -21.28512573 128.33988953 C-22.64581667 128.32457323 -24.00650392 128.3089253 -25.3671875 128.29296875 C-26.77108302 128.28736738 -28.17498444 128.28309984 -29.57888794 128.28010559 C-33.25822387 128.26869927 -36.93719957 128.23926918 -40.61639404 128.20599365 C-44.37702564 128.17520129 -48.13771594 128.16158076 -51.8984375 128.14648438 C-59.26580755 128.11439466 -66.63280723 128.06166206 -74 128 C-74.495 115.13 -74.495 115.13 -75 102 C-79.4113333 104.61345851 -83.82230733 107.22750546 -88.23242188 109.84301758 C-89.72961615 110.7307274 -91.22700811 111.61810391 -92.72460938 112.50512695 C-94.88985716 113.78767539 -97.05436695 115.07146169 -99.21875 116.35546875 C-99.87742065 116.74526413 -100.53609131 117.13505951 -101.21472168 117.53666687 C-105.30796059 119.96690671 -109.33739049 122.4739481 -113.32824707 125.0695343 C-115 126 -115 126 -117 126 C-117 126.66 -117 127.32 -117 128 C-122.17780166 128.04954105 -127.35546446 128.08578636 -132.53344727 128.10986328 C-134.29388839 128.11990351 -136.05431291 128.13353844 -137.81469727 128.15087891 C-140.34916285 128.17521436 -142.88340739 128.18650296 -145.41796875 128.1953125 C-146.20149216 128.20563507 -146.98501556 128.21595764 -147.7922821 128.22659302 C-151.97755404 128.22744694 -155.23883731 127.89203832 -159 126 C-159 125.34 -159 124.68 -159 124 C-157.69335938 122.78588867 -157.69335938 122.78588867 -155.84375 121.41796875 C-155.15901611 120.90476074 -154.47428223 120.39155273 -153.76879883 119.86279297 C-153.02009521 119.30994629 -152.2713916 118.75709961 -151.5 118.1875 C-145.51023041 113.69124251 -139.60381316 109.12444807 -133.8125 104.375 C-127.17926318 98.94522418 -120.47370418 93.61879693 -113.71777344 88.34277344 C-110.80728392 86.06766082 -107.90401293 83.78336957 -105 81.5 C-101.51348899 78.75945374 -98.02621842 76.01990368 -94.53515625 73.28515625 C-88.4986907 68.55387244 -82.48376068 63.79781792 -76.5 59 C-69.94437 53.74365357 -63.34861504 48.5405794 -56.73388672 43.35888672 C-53.82033183 41.07546705 -50.91031584 38.78754555 -48 36.5 C-44.51343843 33.75951792 -41.02621854 31.01990378 -37.53515625 28.28515625 C-31.41678374 23.48979141 -25.31912229 18.67009384 -19.25 13.8125 C-18.31099854 13.06190308 -18.31099854 13.06190308 -17.35302734 12.29614258 C-14.52464518 10.03276467 -11.70318333 7.76224359 -8.90234375 5.46484375 C-8.00644531 4.73394531 -7.11054688 4.00304687 -6.1875 3.25 C-5.41792969 2.61578125 -4.64835938 1.9815625 -3.85546875 1.328125 C-2 0 -2 0 0 0 Z " fill="#FCD21D" transform="translate(475,184)"/>
<path d="M0 0 C1.3981702 0.00934728 2.796357 0.01645432 4.19454956 0.0214386 C7.84125485 0.04035874 11.4869345 0.08932415 15.13323975 0.1449585 C18.86733126 0.19647939 22.60159157 0.21902201 26.3359375 0.24414062 C33.63853841 0.29746296 40.9400875 0.3852696 48.2421875 0.48828125 C48.2421875 9.06828125 48.2421875 17.64828125 48.2421875 26.48828125 C52.11763409 24.23493413 55.99178988 21.97958862 59.86328125 19.71948242 C61.1735035 18.95534573 62.48435088 18.19227964 63.79589844 17.43041992 C65.06904141 16.69068669 66.3412324 15.94931261 67.61247253 15.20631409 C68.90208103 14.45331006 70.19421819 13.70462162 71.48872375 12.96006775 C74.68223653 11.10001384 77.71938549 9.18338826 80.65698242 6.93774414 C90.33638927 -0.31993687 98.44745682 -0.6850269 110.3046875 -0.19921875 C111.98105764 -0.17113586 113.65749919 -0.14702591 115.33398438 -0.12695312 C128.37356218 0.12518915 128.37356218 0.12518915 133.2421875 2.48828125 C133.2421875 3.14828125 133.2421875 3.80828125 133.2421875 4.48828125 C131.3984375 5.9765625 131.3984375 5.9765625 128.7421875 7.80078125 C123.8721949 11.25087831 119.22450305 14.88321525 114.6171875 18.67578125 C109.07427271 23.22766201 103.45998553 27.6581647 97.7421875 31.98828125 C91.40986296 36.78799656 85.20423117 41.71764735 79.05517578 46.74951172 C73.08695158 51.63072454 67.03641154 56.40012226 60.95996094 61.14550781 C58.04947122 63.42062058 55.14624254 65.70496495 52.2421875 67.98828125 C51.07555471 68.90499103 49.90888806 69.82165773 48.7421875 70.73828125 C47.8759375 71.41890625 47.8759375 71.41890625 46.9921875 72.11328125 C41.7421875 76.23828125 41.7421875 76.23828125 39.99243164 77.61303711 C38.8248834 78.53043134 37.65740301 79.44791192 36.48999023 80.36547852 C33.5873596 82.6467237 30.68359476 84.92649339 27.77734375 87.203125 C21.74087589 91.93441062 15.72609871 96.69064877 9.7421875 101.48828125 C-1.29444838 110.33243489 -12.39780375 119.06190113 -23.7578125 127.48828125 C-27.51871239 126.27942057 -29.0590211 123.99814001 -30.91295052 120.60829163 C-32.48184735 116.67146215 -32.30408317 112.71956414 -32.25952148 108.53320312 C-32.26492447 107.55831436 -32.27032745 106.5834256 -32.27589417 105.57899475 C-32.28835394 102.37136034 -32.27190819 99.1646283 -32.25390625 95.95703125 C-32.2540613 93.71935987 -32.25555129 91.48168823 -32.25831604 89.24401855 C-32.25969881 84.56018158 -32.24716203 79.87665128 -32.22436523 75.19287109 C-32.19598135 69.19736017 -32.19871975 63.20235861 -32.21145535 57.20681 C-32.21841943 52.58790762 -32.21061482 47.9691224 -32.19819832 43.35023499 C-32.19369094 41.13990224 -32.19334076 38.92955688 -32.19726372 36.71922302 C-32.20018303 33.62700742 -32.18363392 30.535487 -32.16186523 27.44335938 C-32.16636688 26.53509903 -32.17086853 25.62683868 -32.17550659 24.6910553 C-32.09753158 18.00458899 -30.63391401 13.64013178 -27.1953125 7.86328125 C-19.30789768 0.17810783 -10.5142753 -0.20876335 0 0 Z " fill="#FCD21C" transform="translate(335.7578125,177.51171875)"/>
<path d="M0 0 C8.59746241 -0.11618335 17.19459329 -0.20486052 25.79264832 -0.25906086 C29.7857143 -0.28508307 33.77824063 -0.32034376 37.77099609 -0.37719727 C41.62898004 -0.43178389 45.48644708 -0.46147594 49.3447876 -0.47438622 C50.81195201 -0.48357871 52.27909019 -0.50152953 53.74603271 -0.52865028 C68.82977476 -0.79626236 68.82977476 -0.79626236 75 5 C79.60124496 10.40646283 79.65749964 15.63010518 79.45703125 22.609375 C78.66661882 28.47328946 76.16376646 32.02715411 71.875 35.9375 C68.41168232 37.90004669 65.55833835 38.13499528 61.65820312 38.17358398 C60.02135559 38.19381874 60.02135559 38.19381874 58.35144043 38.21446228 C57.17327759 38.22490067 55.99511475 38.23533905 54.78125 38.24609375 C52.29817341 38.279021 49.81510058 38.31223283 47.33203125 38.34570312 C43.40806576 38.39320816 39.48411672 38.43765846 35.56005859 38.47680664 C31.7794627 38.51641017 27.99917666 38.56797223 24.21875 38.62109375 C23.04058716 38.6295079 21.86242432 38.63792206 20.64855957 38.64659119 C19.01171204 38.67155418 19.01171204 38.67155418 17.34179688 38.69702148 C15.89975891 38.71248268 15.89975891 38.71248268 14.42858887 38.72825623 C11.74168811 38.84089844 11.74168811 38.84089844 9 41 C8.67 45.95 8.34 50.9 8 56 C30.77 56 53.54 56 77 56 C77 59.63 77 63.26 77 67 C50.6 67 24.2 67 -3 67 C-3 41 -3 41 2 33 C6.29907194 29.10084173 8.68955054 27.87947944 14.42773438 27.84228516 C15.56231079 27.83202301 16.69688721 27.82176086 17.86584473 27.81118774 C19.09605347 27.80388641 20.32626221 27.79658508 21.59375 27.7890625 C24.1757877 27.76100406 26.75781887 27.73233968 29.33984375 27.703125 C33.42851355 27.66060189 37.51714222 27.62383558 41.60595703 27.59863281 C45.53960829 27.57373223 49.47281997 27.52529097 53.40625 27.4765625 C54.63645874 27.47330963 55.86666748 27.47005676 57.13415527 27.46670532 C58.26873169 27.45013885 59.40330811 27.43357239 60.57226562 27.41650391 C61.57439087 27.40841705 62.57651611 27.4003302 63.60900879 27.39199829 C64.79254944 27.19795914 64.79254944 27.19795914 66 27 C68.14553377 23.78169935 68.29583868 22.73213493 68.3125 19 C68.33763672 17.700625 68.33763672 17.700625 68.36328125 16.375 C67.91294646 13.43087579 67.38331401 12.75559328 65 11 C62.07345018 10.52493367 62.07345018 10.52493367 58.69262695 10.56762695 C56.74094353 10.53793571 56.74094353 10.53793571 54.74983215 10.50764465 C53.32931665 10.50087483 51.90879958 10.49442797 50.48828125 10.48828125 C49.03523739 10.47143671 47.58220812 10.45328676 46.12919617 10.43388367 C42.30700236 10.38635258 38.4848677 10.35656365 34.66247559 10.33044434 C30.76119299 10.30065427 26.86011429 10.25411868 22.95898438 10.20898438 C15.30609068 10.12291604 7.65318222 10.05558681 0 10 C0 6.7 0 3.4 0 0 Z " fill="#737577" transform="translate(116,194)"/>
<path d="M0 0 C17.14874426 -0.24065286 17.14874426 -0.24065286 24.4921875 -0.29296875 C29.49160249 -0.32875494 34.49035445 -0.3709609 39.48925781 -0.45263672 C43.52232597 -0.51811515 47.55468266 -0.55376524 51.58824158 -0.56926346 C53.12242323 -0.58029923 54.65656852 -0.60185013 56.19044495 -0.63438034 C70.68448695 -0.92937633 70.68448695 -0.92937633 76.62277222 4.42123413 C80.62143566 9.00504622 81.41430112 13.02622945 81.375 19 C81.38660156 20.7634375 81.38660156 20.7634375 81.3984375 22.5625 C80.76707655 28.00953563 78.74711394 31.857063 74.5 35.3125 C73.61828125 36.04919922 73.61828125 36.04919922 72.71875 36.80078125 C69.4489361 39.08221959 66.55743151 39.1225115 62.70239258 39.11352539 C61.62149857 39.11344986 60.54060455 39.11337433 59.42695618 39.11329651 C58.26125595 39.10813522 57.09555573 39.10297394 55.89453125 39.09765625 C54.70018967 39.0962413 53.50584808 39.09482635 52.27531433 39.09336853 C48.45435092 39.0877635 44.63344575 39.07521011 40.8125 39.0625 C38.22461022 39.05748565 35.63671952 39.05292263 33.04882812 39.04882812 C26.69919625 39.03779242 20.34960801 39.02052437 14 39 C14 35.37 14 31.74 14 28 C15.62534668 27.98541748 17.25069336 27.97083496 18.92529297 27.95581055 C24.93756463 27.89797586 30.9494559 27.8207424 36.96142578 27.73754883 C39.56683188 27.70422954 42.17231138 27.67621974 44.77783203 27.65356445 C48.51626973 27.62014746 52.25403041 27.56783754 55.9921875 27.51171875 C57.74847977 27.50213387 57.74847977 27.50213387 59.54025269 27.49235535 C61.161707 27.46266411 61.161707 27.46266411 62.81591797 27.43237305 C63.77078094 27.42126999 64.72564392 27.41016693 65.70944214 27.39872742 C66.84326828 27.20135735 66.84326828 27.20135735 68 27 C70.14553377 23.78169935 70.29583868 22.73213493 70.3125 19 C70.33763672 17.700625 70.33763672 17.700625 70.36328125 16.375 C69.91607256 13.4513131 69.3401225 12.7671159 67 11 C64.39940954 10.52671537 64.39940954 10.52671537 61.42700195 10.56762695 C60.27010864 10.54768677 59.11321533 10.52774658 57.92126465 10.50720215 C56.70588013 10.50095825 55.49049561 10.49471436 54.23828125 10.48828125 C52.56203674 10.46332581 52.56203674 10.46332581 50.85192871 10.43786621 C46.67231115 10.3799752 42.49236947 10.34779195 38.3125 10.3125 C24.2978125 10.1578125 24.2978125 10.1578125 10 10 C10 28.81 10 47.62 10 67 C6.7 67 3.4 67 0 67 C0 44.89 0 22.78 0 0 Z " fill="#717375" transform="translate(206,194)"/>
<path d="M0 0 C17.22896188 -0.16043524 17.22896188 -0.16043524 24.58984375 -0.1953125 C29.60678085 -0.21919659 34.6234251 -0.24740929 39.64013672 -0.30175781 C43.68612242 -0.34531419 47.73179395 -0.3691577 51.77799606 -0.37950897 C53.31934935 -0.38688286 54.86068602 -0.40128257 56.40190506 -0.42292023 C58.56599936 -0.45208611 60.72880625 -0.45595076 62.89306641 -0.45410156 C64.12328522 -0.46298401 65.35350403 -0.47186646 66.6210022 -0.48101807 C71.83514025 0.26124184 74.89108898 2.74123614 78.3125 6.625 C82.50347388 12.52340768 81.5041866 20.02426754 81 27 C79.65655406 31.46887199 77.0576525 34.64394371 73 37 C69.92162206 38.02612598 67.83425704 38.12090219 64.6105957 38.11352539 C63.50968094 38.11344986 62.40876617 38.11337433 61.27449036 38.11329651 C60.08691635 38.10813522 58.89934235 38.10297394 57.67578125 38.09765625 C56.45924362 38.0962413 55.24270599 38.09482635 53.98930359 38.09336853 C50.0970109 38.08776312 46.20477536 38.07520967 42.3125 38.0625 C39.67643312 38.0574857 37.04036534 38.05292267 34.40429688 38.04882812 C27.93617836 38.03779193 21.46809326 38.0210485 15 38 C15 34.7 15 31.4 15 28 C42.225 27.505 42.225 27.505 70 27 C70 22.38 70 17.76 70 13 C66.6184603 10.7456402 65.39531129 10.73371273 61.42700195 10.68115234 C59.69166199 10.65106079 59.69166199 10.65106079 57.92126465 10.62036133 C56.70588013 10.60900146 55.49049561 10.5976416 54.23828125 10.5859375 C53.12078491 10.56829346 52.00328857 10.55064941 50.85192871 10.5324707 C46.67226628 10.46934193 42.49236127 10.42319798 38.3125 10.375 C24.2978125 10.189375 24.2978125 10.189375 10 10 C10 28.81 10 47.62 10 67 C6.7 67 3.4 67 0 67 C0 44.89 0 22.78 0 0 Z " fill="#707274" transform="translate(21,194)"/>
<path d="M0 0 C4.2712088 -0.08070164 8.5409033 -0.14036204 12.8125 -0.1875 C14.63491211 -0.22520508 14.63491211 -0.22520508 16.49414062 -0.26367188 C18.23920898 -0.27817383 18.23920898 -0.27817383 20.01953125 -0.29296875 C21.09307861 -0.3086792 22.16662598 -0.32438965 23.27270508 -0.34057617 C26 0 26 0 27.84887695 1.26049805 C29.24910912 3.37643742 29.38655654 4.59944826 29.3984375 7.125 C29.40423828 8.30835938 29.40423828 8.30835938 29.41015625 9.515625 C29.39855469 10.33546875 29.38695312 11.1553125 29.375 12 C29.38660156 12.81984375 29.39820313 13.6396875 29.41015625 14.484375 C29.40628906 15.27328125 29.40242188 16.0621875 29.3984375 16.875 C29.39336182 17.95394531 29.39336182 17.95394531 29.38818359 19.0546875 C28.86763966 21.66330012 28.19924183 22.50063574 26 24 C23.27270508 24.34057617 23.27270508 24.34057617 20.01953125 24.29296875 C18.85615234 24.28330078 17.69277344 24.27363281 16.49414062 24.26367188 C14.67172852 24.2259668 14.67172852 24.2259668 12.8125 24.1875 C11.58595703 24.17396484 10.35941406 24.16042969 9.09570312 24.14648438 C6.0636155 24.11109036 3.03175309 24.05728295 0 24 C0 16.08 0 8.16 0 0 Z " fill="#FDFDFD" transform="translate(113,272)"/>
<path d="M0 0 C1.00611328 -0.00708984 2.01222656 -0.01417969 3.04882812 -0.02148438 C10.35734523 0.04198304 10.35734523 0.04198304 12.72949219 1.65917969 C14.32554398 4.0087434 14.2818559 5.49792572 14.23046875 8.32421875 C14.22080078 9.26201172 14.21113281 10.19980469 14.20117188 11.16601562 C14.17603516 12.14248047 14.15089844 13.11894531 14.125 14.125 C14.10469727 15.60709961 14.10469727 15.60709961 14.08398438 17.11914062 C14.04862203 19.55914231 13.99927033 21.99804719 13.9375 24.4375 C12.9475 24.4375 11.9575 24.4375 10.9375 24.4375 C10.9375 21.1375 10.9375 17.8375 10.9375 14.4375 C3.6775 14.4375 -3.5825 14.4375 -11.0625 14.4375 C-11.0625 17.7375 -11.0625 21.0375 -11.0625 24.4375 C-12.3825 24.4375 -13.7025 24.4375 -15.0625 24.4375 C-15.17888036 21.18780231 -15.24980581 17.9386417 -15.3125 14.6875 C-15.34601563 13.76710938 -15.37953125 12.84671875 -15.4140625 11.8984375 C-15.46946899 8.07538939 -15.48274071 5.26682459 -13.73828125 1.82421875 C-9.32503284 -0.46293918 -4.88798053 -0.09744527 0 0 Z " fill="#797B7D" transform="translate(242.0625,271.5625)"/>
<path d="M0 0 C1.11826172 0.00966797 2.23652344 0.01933594 3.38867188 0.02929688 C5.13954102 0.06700195 5.13954102 0.06700195 6.92578125 0.10546875 C8.10462891 0.11900391 9.28347656 0.13253906 10.49804688 0.14648438 C13.41191536 0.18187549 16.3248707 0.23125066 19.23828125 0.29296875 C19.23828125 1.61296875 19.23828125 2.93296875 19.23828125 4.29296875 C11.31828125 4.29296875 3.39828125 4.29296875 -4.76171875 4.29296875 C-4.76171875 9.57296875 -4.76171875 14.85296875 -4.76171875 20.29296875 C2.16828125 20.29296875 9.09828125 20.29296875 16.23828125 20.29296875 C16.23828125 18.31296875 16.23828125 16.33296875 16.23828125 14.29296875 C11.61828125 14.29296875 6.99828125 14.29296875 2.23828125 14.29296875 C2.23828125 12.97296875 2.23828125 11.65296875 2.23828125 10.29296875 C8.17828125 10.29296875 14.11828125 10.29296875 20.23828125 10.29296875 C20.72161458 19.47630208 20.72161458 19.47630208 18.87890625 22.58984375 C14.70538334 25.28164255 10.59582255 24.87206033 5.73828125 24.79296875 C4.78824219 24.8084375 3.83820313 24.82390625 2.859375 24.83984375 C-1.10000268 24.81756877 -3.91391106 24.77545069 -7.390625 22.796875 C-9.41006105 19.10895903 -9.30746978 15.86845174 -9.19921875 11.73046875 C-9.20630859 10.96283203 -9.21339844 10.19519531 -9.22070312 9.40429688 C-9.15807284 3.87837877 -9.15807284 3.87837877 -7.59472656 1.56933594 C-5.00556848 -0.23355677 -3.13391526 -0.0477246 0 0 Z " fill="#7B7D7F" transform="translate(162.76171875,271.70703125)"/>
<path d="M0 0 C4.2712088 -0.08070164 8.5409033 -0.14036204 12.8125 -0.1875 C14.63491211 -0.22520508 14.63491211 -0.22520508 16.49414062 -0.26367188 C18.23920898 -0.27817383 18.23920898 -0.27817383 20.01953125 -0.29296875 C21.09307861 -0.3086792 22.16662598 -0.32438965 23.27270508 -0.34057617 C26 0 26 0 27.84887695 1.26049805 C29.24910912 3.37643742 29.38655654 4.59944826 29.3984375 7.125 C29.40423828 8.30835938 29.40423828 8.30835938 29.41015625 9.515625 C29.39855469 10.33546875 29.38695312 11.1553125 29.375 12 C29.38660156 12.81984375 29.39820313 13.6396875 29.41015625 14.484375 C29.40628906 15.27328125 29.40242188 16.0621875 29.3984375 16.875 C29.39336182 17.95394531 29.39336182 17.95394531 29.38818359 19.0546875 C28.86763966 21.66330012 28.19924183 22.50063574 26 24 C23.27270508 24.34057617 23.27270508 24.34057617 20.01953125 24.29296875 C18.85615234 24.28330078 17.69277344 24.27363281 16.49414062 24.26367188 C14.67172852 24.2259668 14.67172852 24.2259668 12.8125 24.1875 C11.58595703 24.17396484 10.35941406 24.16042969 9.09570312 24.14648438 C6.0636155 24.11109036 3.03175309 24.05728295 0 24 C0 16.08 0 8.16 0 0 Z M4 4 C4 9.28 4 14.56 4 20 C7.47921735 20.02683201 10.95823039 20.0467567 14.4375 20.0625 C15.92733398 20.07506836 15.92733398 20.07506836 17.44726562 20.08789062 C18.39150391 20.09111328 19.33574219 20.09433594 20.30859375 20.09765625 C21.18314209 20.10289307 22.05769043 20.10812988 22.95874023 20.11352539 C24.99440206 20.22784809 24.99440206 20.22784809 26 19 C26.09909302 16.66839945 26.12970504 14.33370058 26.125 12 C26.12757813 10.72125 26.13015625 9.4425 26.1328125 8.125 C26.35860893 5.13312756 26.35860893 5.13312756 25 4 C23.43827255 3.91314397 21.87270656 3.89297781 20.30859375 3.90234375 C19.36435547 3.90556641 18.42011719 3.90878906 17.44726562 3.91210938 C15.95743164 3.92467773 15.95743164 3.92467773 14.4375 3.9375 C13.44041016 3.94201172 12.44332031 3.94652344 11.41601562 3.95117188 C8.94398513 3.96299977 6.47198528 3.98093585 4 4 Z " fill="#7B7D7F" transform="translate(113,272)"/>
<path d="M0 0 C9.9 0 19.8 0 30 0 C30 1.32 30 2.64 30 4 C25.71 4 21.42 4 17 4 C17 10.6 17 17.2 17 24 C15.68 24 14.36 24 13 24 C13 17.4 13 10.8 13 4 C8.71 4 4.42 4 0 4 C0 2.68 0 1.36 0 0 Z " fill="#7D7F81" transform="translate(194,272)"/>
<path d="M0 0 C1.32 0 2.64 0 4 0 C4.33 6.27 4.66 12.54 5 19 C12.26 19.33 19.52 19.66 27 20 C27 21.32 27 22.64 27 24 C23.25026094 24.11622939 19.50098536 24.1872595 15.75 24.25 C14.68652344 24.28351563 13.62304688 24.31703125 12.52734375 24.3515625 C11.50253906 24.36445313 10.47773438 24.37734375 9.421875 24.390625 C8.47924805 24.41157227 7.53662109 24.43251953 6.56542969 24.45410156 C3.17837631 23.85456604 2.03115384 22.7395864 0 20 C-0.45410156 17.70996094 -0.45410156 17.70996094 -0.390625 15.234375 C-0.37773437 14.34492188 -0.36484375 13.45546875 -0.3515625 12.5390625 C-0.31804687 11.61867188 -0.28453125 10.69828125 -0.25 9.75 C-0.23195313 8.81414062 -0.21390625 7.87828125 -0.1953125 6.9140625 C-0.14825673 4.60832985 -0.08253713 2.30469055 0 0 Z " fill="#7D7F81" transform="translate(260,272)"/>
<path d="M0 0 C3.47914941 -0.02887814 6.95826831 -0.04675687 10.4375 -0.0625 C11.92733398 -0.07506836 11.92733398 -0.07506836 13.44726562 -0.08789062 C14.39150391 -0.09111328 15.33574219 -0.09433594 16.30859375 -0.09765625 C17.62041626 -0.10551147 17.62041626 -0.10551147 18.95874023 -0.11352539 C21 0 21 0 22 1 C22 2.65 22 4.3 22 6 C14.74 6 7.48 6 0 6 C0 4.02 0 2.04 0 0 Z " fill="#FBFBFB" transform="translate(231,276)"/>
<path d="M0 0 C1.32 0 2.64 0 4 0 C4 7.92 4 15.84 4 24 C2.68 24 1.36 24 0 24 C0 16.08 0 8.16 0 0 Z " fill="#7C7E80" transform="translate(187,272)"/>
<path d="M0 0 C1.32 0 2.64 0 4 0 C4 7.92 4 15.84 4 24 C2.68 24 1.36 24 0 24 C0 16.08 0 8.16 0 0 Z " fill="#7E8082" transform="translate(146,272)"/>
</svg>
